<svg version="1.1" id="Layer_1" xmlns="http://www.w3.org/2000/svg" xmlns:xlink="http://www.w3.org/1999/xlink" x="0px" y="0px"
	 width="100%" viewBox="0 0 500 500" enable-background="new 0 0 500 500" xml:space="preserve">
<path fill="#FEFFFE" opacity="1.000000" stroke="none" 
	d="
M1.000000,184.000000 
	C1.000000,122.681854 1.000000,61.863712 1.000000,1.022784 
	C167.609863,1.022784 334.219727,1.022784 500.914795,1.022784 
	C500.914795,167.568207 500.914795,334.136475 500.914795,500.852356 
	C334.333435,500.852356 167.666733,500.852356 1.000000,500.852356 
	C1.000000,395.446808 1.000000,289.973419 1.000000,184.000000 
M79.850716,484.845856 
	C80.598770,485.082733 81.346825,485.319611 82.662056,485.857391 
	C83.462677,486.134430 84.263298,486.411469 85.445503,487.134552 
	C85.999977,487.250183 86.554459,487.365784 87.714752,487.822601 
	C88.600853,488.089172 89.486954,488.355743 90.953598,489.058167 
	C93.951691,489.697571 96.949783,490.336975 100.524902,491.363251 
	C100.851341,491.739319 101.142639,492.404236 101.509407,492.448853 
	C108.902962,493.348480 116.295181,494.779877 123.707626,494.903107 
	C143.697205,495.235321 163.696472,495.075012 183.691330,494.983307 
	C248.632629,494.685425 313.574402,494.421570 378.513855,493.885254 
	C386.815155,493.816681 395.337616,493.151703 403.355591,491.151459 
	C430.197571,484.455292 452.114899,469.581055 469.208099,448.025726 
	C486.483521,426.240662 495.038269,401.096252 494.943176,373.253296 
	C494.857971,348.301727 494.194244,323.352570 494.025787,298.400757 
	C493.609863,236.792892 493.371246,175.183823 492.924957,113.576225 
	C492.888092,108.489586 492.602203,103.157341 491.060913,98.381737 
	C488.071747,89.119804 484.623108,79.926590 480.436646,71.147530 
	C472.196686,53.868023 459.221985,40.496674 444.079681,29.000790 
	C424.151947,13.871896 401.532898,7.221637 376.801910,7.016251 
	C330.856659,6.634685 284.910950,6.307214 238.965027,6.019587 
	C222.969467,5.919453 206.966156,5.709095 190.977921,6.065927 
	C159.262283,6.773771 127.339905,3.208268 95.927681,10.425854 
	C95.209839,10.590795 94.624626,11.332969 93.174545,11.990175 
	C90.775299,12.590497 88.293266,12.967963 85.989006,13.823981 
	C37.993233,31.654135 6.313406,77.160194 6.248002,128.745590 
	C6.145134,209.880325 6.167682,291.015350 6.308841,372.149963 
	C6.321811,379.604645 6.874655,387.200256 8.366174,394.487030 
	C16.930775,436.328979 40.412701,466.558136 79.850716,484.845856 
z"/>
<path fill="#E6E9E7" opacity="1.000000" stroke="none" 
	d="
M93.977554,11.805891 
	C94.624626,11.332969 95.209839,10.590795 95.927681,10.425854 
	C127.339905,3.208268 159.262283,6.773771 190.977921,6.065927 
	C206.966156,5.709095 222.969467,5.919453 238.965027,6.019587 
	C284.910950,6.307214 330.856659,6.634685 376.801910,7.016251 
	C401.532898,7.221637 424.151947,13.871896 444.079681,29.000790 
	C459.221985,40.496674 472.196686,53.868023 480.436646,71.147530 
	C484.623108,79.926590 488.071747,89.119804 491.060913,98.381737 
	C492.602203,103.157341 492.888092,108.489586 492.924957,113.576225 
	C493.371246,175.183823 493.609863,236.792892 494.025787,298.400757 
	C494.194244,323.352570 494.857971,348.301727 494.943176,373.253296 
	C495.038269,401.096252 486.483521,426.240662 469.208099,448.025726 
	C452.114899,469.581055 430.197571,484.455292 403.355591,491.151459 
	C395.337616,493.151703 386.815155,493.816681 378.513855,493.885254 
	C313.574402,494.421570 248.632629,494.685425 183.691330,494.983307 
	C163.696472,495.075012 143.697205,495.235321 123.707626,494.903107 
	C116.295181,494.779877 108.902962,493.348480 101.509407,492.448853 
	C101.142639,492.404236 100.851341,491.739319 100.183800,490.821655 
	C97.538002,489.224640 95.233307,488.169250 92.628693,486.925964 
	C77.578186,479.938690 65.223228,470.005402 55.226990,457.321625 
	C35.402866,432.167786 26.839470,403.142059 26.818045,371.413269 
	C26.763615,290.810242 26.725622,210.206970 26.903004,129.604294 
	C26.923029,120.504799 27.521152,111.241196 29.289623,102.339455 
	C37.104641,63.001911 56.054451,31.498117 93.658150,13.638475 
	C93.981743,13.484788 93.880463,12.436501 93.977554,11.805891 
M302.005615,98.485291 
	C286.414612,92.682320 270.779968,86.992363 255.263458,80.996635 
	C251.401093,79.504181 248.048920,79.582893 244.241272,81.017769 
	C205.635101,95.566055 166.977905,109.978889 128.348831,124.466553 
	C120.410370,127.443840 120.423836,127.514297 120.422089,135.748276 
	C120.416023,164.234528 119.819893,192.738342 120.652283,221.200241 
	C121.126472,237.414017 122.781731,253.791489 125.967613,269.681732 
	C130.867432,294.120605 142.041382,316.108673 156.587402,336.351990 
	C179.321671,367.990631 208.689438,390.286285 246.699799,400.387817 
	C248.517822,400.870972 250.685410,400.945282 252.485229,400.455994 
	C285.670044,391.434265 312.895203,373.276428 334.769104,346.816376 
	C363.649414,311.881073 378.350922,271.744720 378.817596,226.506943 
	C379.140625,195.192001 378.844543,163.870987 378.961426,132.553192 
	C378.975220,128.857971 377.842377,126.826126 374.242401,125.502304 
	C350.357025,116.718948 326.542297,107.743439 302.005615,98.485291 
z"/>
<path fill="#0F7057" opacity="1.000000" stroke="none" 
	d="
M93.576050,11.898033 
	C93.880463,12.436501 93.981743,13.484788 93.658150,13.638475 
	C56.054451,31.498117 37.104641,63.001911 29.289623,102.339455 
	C27.521152,111.241196 26.923029,120.504799 26.903004,129.604294 
	C26.725622,210.206970 26.763615,290.810242 26.818045,371.413269 
	C26.839470,403.142059 35.402866,432.167786 55.226990,457.321625 
	C65.223228,470.005402 77.578186,479.938690 92.383850,487.212524 
	C91.750305,487.998749 91.061684,488.310547 90.373062,488.622314 
	C89.486954,488.355743 88.600853,488.089172 87.361237,487.408386 
	C86.359795,486.892303 85.711853,486.790405 85.063919,486.688477 
	C84.263298,486.411469 83.462677,486.134430 82.267769,485.391602 
	C81.073547,484.739594 80.273613,484.553436 79.473671,484.367279 
	C40.412701,466.558136 16.930775,436.328979 8.366174,394.487030 
	C6.874655,387.200256 6.321811,379.604645 6.308841,372.149963 
	C6.167682,291.015350 6.145134,209.880325 6.248002,128.745590 
	C6.313406,77.160194 37.993233,31.654135 85.989006,13.823981 
	C88.293266,12.967963 90.775299,12.590497 93.576050,11.898033 
z"/>
<path fill="#418B77" opacity="1.000000" stroke="none" 
	d="
M90.663330,488.840240 
	C91.061684,488.310547 91.750305,487.998749 92.683762,487.400452 
	C95.233307,488.169250 97.538002,489.224640 99.895279,490.628204 
	C96.949783,490.336975 93.951691,489.697571 90.663330,488.840240 
z"/>
<path fill="#418B77" opacity="1.000000" stroke="none" 
	d="
M79.662193,484.606567 
	C80.273613,484.553436 81.073547,484.739594 81.984177,485.241150 
	C81.346825,485.319611 80.598770,485.082733 79.662193,484.606567 
z"/>
<path fill="#418B77" opacity="1.000000" stroke="none" 
	d="
M85.254715,486.911530 
	C85.711853,486.790405 86.359795,486.892303 87.058334,487.237793 
	C86.554459,487.365784 85.999977,487.250183 85.254715,486.911530 
z"/>
<path fill="#086D53" opacity="1.000000" stroke="none" 
	d="
M302.355103,98.657867 
	C326.542297,107.743439 350.357025,116.718948 374.242401,125.502304 
	C377.842377,126.826126 378.975220,128.857971 378.961426,132.553192 
	C378.844543,163.870987 379.140625,195.192001 378.817596,226.506943 
	C378.350922,271.744720 363.649414,311.881073 334.769104,346.816376 
	C312.895203,373.276428 285.670044,391.434265 252.485229,400.455994 
	C250.685410,400.945282 248.517822,400.870972 246.699799,400.387817 
	C208.689438,390.286285 179.321671,367.990631 156.587402,336.351990 
	C142.041382,316.108673 130.867432,294.120605 125.967613,269.681732 
	C122.781731,253.791489 121.126472,237.414017 120.652283,221.200241 
	C119.819893,192.738342 120.416023,164.234528 120.422089,135.748276 
	C120.423836,127.514297 120.410370,127.443840 128.348831,124.466553 
	C166.977905,109.978889 205.635101,95.566055 244.241272,81.017769 
	C248.048920,79.582893 251.401093,79.504181 255.263458,80.996635 
	C270.779968,86.992363 286.414612,92.682320 302.355103,98.657867 
z"/>
</svg>